<svg width="128" height="128" viewBox="0 0 128 128" fill="none" xmlns="http://www.w3.org/2000/svg">
<path d="M100.291 98.0688H75.1992L67.5248 65.636L65.7229 55.8261L64.5217 47.9515H64.1213C62.2528 58.7624 60.9403 65.8362 60.184 69.1729L53.2437 98.0688H28.6188L10 30H33.1567L38.6957 56.1598C40.3863 64.9242 41.4095 72.3761 41.7654 78.5157H42.0991C42.2326 75.001 43.3448 67.9939 45.4358 57.4944L51.7088 30H77.6684L83.4075 57.8281C85.2315 66.548 86.3883 73.4439 86.8777 78.5157H87.2781C87.456 75.8908 87.8342 72.087 88.4125 67.1041C89.0799 62.2103 89.725 58.5622 90.3478 56.1598L96.3539 30H118.977L100.291 98.0688Z" fill="#0BC5EA"/>
</svg>
